<svg xmlns="http://www.w3.org/2000/svg" viewBox="0 0 200 200">
  <rect width="200" height="200" fill="white" />
  
  <!-- QR Code patterns -->
  <g fill="black">
    <!-- Position detection patterns (corners) -->
    <!-- Top-left corner -->
    <rect x="20" y="20" width="40" height="40" />
    <rect x="30" y="30" width="20" height="20" fill="white" />
    
    <!-- Top-right corner -->
    <rect x="140" y="20" width="40" height="40" />
    <rect x="150" y="30" width="20" height="20" fill="white" />
    
    <!-- Bottom-left corner -->
    <rect x="20" y="140" width="40" height="40" />
    <rect x="30" y="150" width="20" height="20" fill="white" />
    
    <!-- Timing patterns -->
    <rect x="70" y="20" width="10" height="10" />
    <rect x="90" y="20" width="10" height="10" />
    <rect x="110" y="20" width="10" height="10" />
    
    <rect x="20" y="70" width="10" height="10" />
    <rect x="20" y="90" width="10" height="10" />
    <rect x="20" y="110" width="10" height="10" />
    
    <!-- Data patterns (simplified representation) -->
    <rect x="70" y="40" width="10" height="10" />
    <rect x="90" y="40" width="10" height="10" />
    <rect x="110" y="40" width="10" height="10" />
    <rect x="130" y="40" width="10" height="10" />
    
    <rect x="40" y="70" width="10" height="10" />
    <rect x="60" y="70" width="10" height="10" />
    <rect x="100" y="70" width="10" height="10" />
    <rect x="130" y="70" width="10" height="10" />
    <rect x="150" y="70" width="10" height="10" />
    
    <rect x="40" y="90" width="10" height="10" />
    <rect x="70" y="90" width="10" height="10" />
    <rect x="90" y="90" width="10" height="10" />
    <rect x="110" y="90" width="10" height="10" />
    <rect x="130" y="90" width="10" height="10" />
    
    <rect x="60" y="110" width="10" height="10" />
    <rect x="80" y="110" width="10" height="10" />
    <rect x="120" y="110" width="10" height="10" />
    <rect x="150" y="110" width="10" height="10" />
    
    <rect x="70" y="130" width="10" height="10" />
    <rect x="90" y="130" width="10" height="10" />
    <rect x="110" y="130" width="10" height="10" />
    <rect x="130" y="130" width="10" height="10" />
    <rect x="150" y="130" width="10" height="10" />
    
    <rect x="70" y="150" width="10" height="10" />
    <rect x="100" y="150" width="10" height="10" />
    <rect x="120" y="150" width="10" height="10" />
    <rect x="140" y="150" width="10" height="10" />
    
    <rect x="70" y="170" width="10" height="10" />
    <rect x="90" y="170" width="10" height="10" />
    <rect x="130" y="170" width="10" height="10" />
    <rect x="150" y="170" width="10" height="10" />
  </g>
</svg>
